<svg t="1583847653432" class="icon" viewBox="0 0 1024 1024" version="1.1" xmlns="http://www.w3.org/2000/svg" p-id="11676" width="200" height="200"><path d="M925.2 929.5H99.4c-19.4 0-35.2-15.8-35.2-35.2 0-19.4 15.8-35.2 35.2-35.2h825.7c19.4 0 35.2 15.8 35.2 35.2 0.1 19.4-15.7 35.2-35.1 35.2zM503.4 251c-16.7 0-30.2-13.5-30.2-30.2V94.4c0-16.7 13.5-30.2 30.2-30.2s30.2 13.5 30.2 30.2v126.4c0 16.7-13.5 30.2-30.2 30.2zM335.3 310.7c-9.3 0-18.5-4.3-24.4-12.4L236.5 196c-9.8-13.5-6.8-32.3 6.7-42.1 13.5-9.8 32.3-6.8 42.1 6.7l74.3 102.3c9.8 13.5 6.8 32.3-6.7 42.1-5.3 3.8-11.5 5.7-17.6 5.7zM242.3 430c-3.1 0-6.2-0.5-9.3-1.5l-120.2-39.1c-15.8-5.1-24.5-22.2-19.4-38 5.1-15.8 22.2-24.5 38-19.4l120.2 39.1c15.8 5.1 24.5 22.2 19.4 38-4.2 12.8-16 20.9-28.7 20.9zM686.3 309.5c-6.1 0-12.4-1.9-17.7-5.8-13.5-9.8-16.5-28.7-6.7-42.1l74.3-102.3c9.8-13.5 28.7-16.5 42.1-6.7 13.5 9.8 16.5 28.7 6.7 42.1L710.7 297c-5.8 8.2-15 12.5-24.4 12.5zM779.5 427.1c-12.7 0-24.5-8.1-28.7-20.9-5.1-15.8 3.5-32.9 19.4-38l120.2-39.1c15.8-5.1 32.9 3.5 38 19.4 5.1 15.8-3.5 32.9-19.4 38l-120.2 39.1c-3.1 1-6.2 1.5-9.3 1.5z" fill="#e6e6e6" p-id="11677"></path><path d="M512.3 315C371.9 315 257 429.9 257 570.3v293.3h510.6V570.3c0-140.4-114.9-255.3-255.3-255.3zM459 769.5l42.8-150.7-108.4 0.1 162.9-191.2-42.8 150.7 117.9-0.1L459 769.5z" fill="#e6e6e6" p-id="11678"></path></svg>