<svg t="1583845449010" class="icon" viewBox="0 0 1024 1024" version="1.1" xmlns="http://www.w3.org/2000/svg" p-id="9293" width="200" height="200"><path d="M149.504 389.12h-26.624c-12.8 0-24.064 10.461184-24.064 23.41376V481.28h74.752v-68.74624C173.568 399.581184 162.816 389.12 149.504 389.12zM337.408 204.8h-26.624c-12.8 0-24.064 11.037696-24.064 24.704V481.28h74.752V229.504C361.472 215.837696 350.72 204.8 337.408 204.8zM525.312 112.64h-26.624c-12.8 0-24.064 10.5472-24.064 23.605248V481.28h74.752V136.245248C549.376 123.68896 538.624 112.64 525.312 112.64zM713.216 276.48h-26.624c-12.8 0-24.064 10.349568-24.064 23.16288V481.28h74.752V299.64288c0-12.813312-10.752-23.16288-24.064-23.16288zM901.12 389.12h-26.624c-12.8 0-24.064 10.461184-24.064 23.41376V481.28h74.752v-68.74624C925.184 399.581184 914.432 389.12 901.12 389.12zM850.432 615.05024c0 12.951552 10.752 23.41376 24.064 23.41376h26.624c12.8 0 24.064-10.462208 24.064-23.41376V546.304h-74.752v68.74624zM662.528 798.08c0 13.666304 10.752 24.704 24.064 24.704h26.624c12.8 0 24.064-11.037696 24.064-24.704V546.304h-74.752v251.776zM474.624 891.338752c0 12.556288 10.752 23.605248 24.064 23.605248h26.624c12.8 0 24.064-10.5472 24.064-23.605248V546.304h-74.752v345.034752zM286.72 727.94112c0 12.813312 10.752 23.16288 24.064 23.16288h26.624c12.8 0 24.064-10.349568 24.064-23.16288V546.304h-74.752v181.63712zM98.816 615.05024c0 12.951552 10.752 23.41376 24.064 23.41376h26.624c12.8 0 24.064-10.462208 24.064-23.41376V546.304h-74.752v68.74624z" p-id="9294" fill="#1296db"></path></svg>