<svg t="1583845754856" class="icon" viewBox="0 0 1024 1024" version="1.1" xmlns="http://www.w3.org/2000/svg" p-id="10486" width="200" height="200"><path d="M648.411429 585.142857a39.862857 39.862857 0 0 1-39.862858 39.862857H336.091429A39.862857 39.862857 0 0 1 296.228571 585.142857v-153.965714a39.862857 39.862857 0 0 1 39.862858-39.862857h272.457142a39.862857 39.862857 0 0 1 39.862858 39.862857V585.142857z m0 0" fill="#0897D9" p-id="10487"></path><path d="M784.822857 109.714286h-283.428571s-257.828571-4.388571-322.925715 109.714285c0 0-114.468571 194.194286 171.52 251.245715 0 0 280.502857 58.514286 337.554286 78.262857 0 0 192.731429 36.571429 118.125714 186.148571 0 0-17.188571 66.56-184.685714 81.188572 0 0-211.382857 8.411429-487.131428 1.828571v85.577143l444.708571-4.754286s333.165714 9.874286 323.657143-226.742857a196.754286 196.754286 0 0 0-141.531429-187.611428C611.84 432.274286 199.314286 402.285714 245.028571 279.405714c0 0 13.165714-87.771429 263.314286-89.234285l271.36 4.022857z m0 0" fill="#0897D9" p-id="10488"></path></svg>