<svg t="1583847064646" class="icon" viewBox="0 0 1024 1024" version="1.1" xmlns="http://www.w3.org/2000/svg" p-id="6423" width="200" height="200"><path d="M930.2279131 451.25493443L587.37232829 94.70375968a111.24173051 111.24173051 0 0 0-160.6203881 0L83.98952265 451.25493443c-35.40356583 37.26691139-30.83836918 68.66428425-25.06199791 81.89403779a59.62705823 59.62705823 0 0 0 58.78855272 35.40356583h50.31033039v274.28446784c0 62.23574202 44.72029367 121.11746203 108.35354487 121.11746203h145.8999581V673.45889362c0-31.11787101-4.65836393-48.44698481 27.11167804-48.44698482h115.34109076c31.86320924 0 27.11167804 17.3291138 27.11167803 48.44698482v290.30923974h145.9931254c63.54008392 0 108.35354487-58.69538545 108.35354487-121.11746202V568.55253805h50.2171631a59.62705823 59.62705823 0 0 0 58.78855272-35.40356583c5.86953855-13.22975354 10.43473518-45.0929628-24.96883064-81.89403779z" fill="#e6e6e6" p-id="6424"></path></svg>