<svg t="1583847402858" class="icon" viewBox="0 0 1024 1024" version="1.1" xmlns="http://www.w3.org/2000/svg" p-id="9719" width="200" height="200"><path d="M196.2 227.5L502.9 81.8 810 227.7 511.4 368.6z" fill="#e6e6e6" p-id="9720"></path><path d="M502.9 95.1l279 132.6-270.7 127.7-286.3-128.2 278-132.1m0-26.6L167.6 227.8l343.9 154L838 227.7 502.9 68.5zM77.8 769.6V325.2l360 169.4v444.3z" fill="#e6e6e6" p-id="9721"></path><path d="M89.8 344.1l336 158.1V920l-336-158V344.1m-24-37.8v470.9l384 180.6V487l-384-180.7z" fill="#e6e6e6" p-id="9722"></path><path d="M587.3 494.6l360-169.4v444.4l-360 169.3z" fill="#e6e6e6" p-id="9723"></path><path d="M935.3 344.1V762l-336 158V502.2l336-158.1m24-37.8L575.3 487v470.8l384-180.6V306.3z" fill="#e6e6e6" p-id="9724"></path></svg>