<svg t="1583847835726" class="icon" viewBox="0 0 1026 1024" version="1.1" xmlns="http://www.w3.org/2000/svg" p-id="13089" width="200" height="200"><path d="M463.246222 567.580444 463.246222 101.603556c-0.341333 0-0.682667 0-0.682667 0-255.260444 0-462.108444 206.506667-462.108444 461.198222C0.455111 817.493333 207.303111 1024 462.222222 1024c128.341333 0 244.337778-52.337778 328.021333-136.760889L463.246222 567.580444zM863.288889 857.372444l-347.648-349.866667 350.833778-347.875556 19.968 19.569778c89.031111 87.324444 138.069333 203.832889 138.069333 328.021333 0 125.838222-50.062222 243.370667-141.027556 330.808889L863.288889 857.372444zM596.024889 507.790222l267.491556 269.198222c67.413333-74.126222 104.163556-168.846222 104.163556-269.767111 0-99.441778-35.896889-193.251556-101.660444-267.093333L596.024889 507.790222zM541.411556 0 541.411556 0l0 427.52 302.648889-302.364444C766.577778 47.786667 659.569778 0 541.411556 0z" fill="#e6e6e6" p-id="13090"></path></svg>