<svg t="1583843805177" class="icon" viewBox="0 0 1024 1024" version="1.1" xmlns="http://www.w3.org/2000/svg" p-id="6387" width="200" height="200"><path d="M157.28 284a29.96 29.96 0 0 1 29.88-29.88h15.56A29.96 29.96 0 0 1 232.56 284v456a29.96 29.96 0 0 1-29.88 29.88h-15.52A29.96 29.96 0 0 1 157.28 740z" p-id="6388" fill="#1296db"></path><path d="M157.28 284a29.96 29.96 0 0 1 29.88-29.88h15.56A29.96 29.96 0 0 1 232.56 284v456a29.96 29.96 0 0 1-29.88 29.88h-15.52A29.96 29.96 0 0 1 157.28 740z" p-id="6389" fill="#1296db"></path><path d="M232.56 338.36h596.2v43.04h-596.2z" p-id="6390" fill="#1296db"></path><path d="M232.56 642.6h596.2v43.04h-596.2z" p-id="6391" fill="#1296db"></path><path d="M232.56 381.4h596.2V512h-596.2z" p-id="6392" fill="#1296db"></path><path d="M232.56 512h596.2v130.6h-596.2z" p-id="6393" fill="#1296db"></path><path d="M866.72 740a29.96 29.96 0 0 1-29.88 29.88h-15.56A29.96 29.96 0 0 1 791.4 740V284a29.96 29.96 0 0 1 29.88-29.88h15.56A29.96 29.96 0 0 1 866.72 284z" p-id="6394" fill="#1296db"></path><path d="M866.72 740a29.96 29.96 0 0 1-29.88 29.88h-15.56A29.96 29.96 0 0 1 791.4 740V284a29.96 29.96 0 0 1 29.88-29.88h15.56A29.96 29.96 0 0 1 866.72 284z" p-id="6395" fill="#1296db"></path></svg>