<svg t="1583847587462" class="icon" viewBox="0 0 1024 1024" version="1.1" xmlns="http://www.w3.org/2000/svg" p-id="10885" width="200" height="200"><path d="M314.88 832.896c33.024 13.632 54.592 45.632 54.592 81.152 0 4.48-0.64 8.96-1.28 13.12 55.552 28.8 117.376 44.032 180.16 44.288a397.824 397.824 0 0 0 205.568-57.408l47.104 32.768a451.392 451.392 0 0 1-456.704 28.288 88.32 88.32 0 0 1-63.36 26.752c-35.84 0-68.224-21.312-81.92-54.144a87.232 87.232 0 0 1 19.2-95.744c25.344-25.152 63.488-32.64 96.64-19.072z m-61.504 65.664a29.12 29.12 0 0 0 0 30.656c5.824 9.344 16.448 14.72 27.52 13.888a29.44 29.44 0 0 0 27.136-29.248 29.12 29.12 0 0 0-27.136-29.12 29.696 29.696 0 0 0-27.52 13.824z m-61.12-470.72v254.08l256.384 127.232V555.328L192.256 427.84z m575.616 0L511.488 554.88v254.336l256.384-126.912V427.84z m-34.432-80.576L475.968 201.152l-259.2 148.416L474.24 495.68l259.2-148.416z m-28.416-272.064a446.72 446.72 0 0 1 258.496 393.088c35.008 11.648 60.48 44.16 60.48 82.816a88.32 88.32 0 0 1-88.576 87.808 88.32 88.32 0 0 1-88.576-87.68c0-39.744 27.008-72.96 63.552-83.84a394.048 394.048 0 0 0-205.376-333.632v-58.56z m230.4 446.784a29.44 29.44 0 0 0-27.2 29.248 29.44 29.44 0 0 0 27.2 29.248 29.44 29.44 0 0 0 0-58.496zM363.456 25.728c25.408 25.216 32.96 63.04 19.2 95.872a88.64 88.64 0 0 1-82.048 54.08c-24.32 0-47.488-9.984-64.064-27.52C126.592 218.368 53.12 340.032 53.12 479.104c0 2.176 0.192 4.224 0.192 6.4l-51.008 35.392A448.192 448.192 0 0 1 0 479.104C0 319.36 85.632 179.648 213.568 100.672a72.128 72.128 0 0 1-1.408-12.672c0-35.584 21.568-67.648 54.656-81.28a89.216 89.216 0 0 1 96.64 19.008z m-62.848 32.896a29.44 29.44 0 0 0 0 58.688 29.44 29.44 0 0 0 0-58.688z" p-id="10886" fill="#e6e6e6"></path></svg>