<svg t="1583846235666" class="icon" viewBox="0 0 1032 1024" version="1.1" xmlns="http://www.w3.org/2000/svg" p-id="3854" width="200" height="200"><path d="M199.655226 481.671251c0 53.301973-43.213197 96.512101-96.505961 96.512101-53.299927 0-96.505961-43.211151-96.505961-96.512101 0-53.292764 43.206034-96.496751 96.505961-96.496751C156.443052 385.175523 199.655226 428.379511 199.655226 481.671251z" p-id="3855" fill="#1296db"></path><path d="M1015.600703 455.078593c0 53.30095-43.205011 96.505961-96.513124 96.505961-53.279461 0-96.498798-43.205011-96.498798-96.505961 0-53.298903 43.218314-96.505961 96.498798-96.505961C972.396715 358.572632 1015.600703 401.779689 1015.600703 455.078593z" p-id="3856" fill="#1296db"></path><path d="M887.820458 589.962629C839.513242 755.503896 686.723394 876.476085 505.59001 876.476085c-176.795589 0-326.597383-115.240651-378.605897-274.687106-11.565407 3.406586-23.789823 5.319146-36.474726 5.319146-0.597611 0-1.172709-0.083911-1.768273-0.100284 54.955636 178.030719 220.785475 307.373553 416.847873 307.373553 203.653283 0 374.712217-139.604548 422.719604-328.34519-10.429537 2.712785-21.325701 4.317329-32.607652 4.317329C893.03011 590.353532 890.433982 590.109985 887.820458 589.962629z" p-id="3857" fill="#1296db"></path><path d="M126.968763 354.675882C178.964998 195.238636 328.777025 79.979566 505.59001 79.979566c168.759565 0 312.910663 105.033172 370.905518 253.251911 6.281053-0.949628 12.654204-1.582031 19.206434-1.582031 7.299243 0 14.432711 0.75213 21.399379 1.917676C857.4211 163.7996 695.749978 42.049698 505.59001 42.049698c-196.078771 0-361.92089 129.376603-416.855036 307.403229 0.596588-0.01535 1.177825-0.088004 1.775436-0.088004C103.18815 349.363899 115.40131 351.267249 126.968763 354.675882z" p-id="3858" fill="#1296db"></path><path d="M505.59001 857.497848c171.462117 0 316.28348-113.804952 363.218442-269.983991-6.252401-1.331321-12.299117-3.211135-18.191314-5.396917-44.61001 148.331303-182.163853 256.395508-345.027128 256.395508-161.582095 0-298.29171-106.311281-344.027357-252.804726-5.350868 3.53757-11.005658 6.611581-16.872273 9.335622C193.96769 747.335866 336.889797 857.497848 505.59001 857.497848z" p-id="3859" fill="#1296db"></path><path d="M505.59001 117.872594c151.672398 0 281.361109 93.780897 334.51982 226.469941 5.672186-2.716878 11.521404-5.133927 17.626449-7.005554-55.933917-139.682319-192.473663-238.388389-352.146269-238.388389-168.716586 0-311.648926 110.169145-360.91498 262.467807 5.866614 2.724041 11.521404 5.791913 16.872273 9.334599C207.260437 224.232994 343.985402 117.872594 505.59001 117.872594z" p-id="3860" fill="#1296db"></path><path d="M247.436462 529.73492 296.78745 529.73492 399.336034 761.621221 442.808128 760.505817 586.600045 421.587827 628.987435 463.975217 797.159622 464.005916 797.159622 477.381551 626.727974 477.381551 594.401732 445.056332 454.512704 786.142707 390.976646 788.371468 286.754956 549.659715 247.436462 549.659715Z" p-id="3861" fill="#1296db"></path><path d="M193.820334 447.993221 327.575664 447.993221 422.321538 652.415007 562.76929 326.919724 620.730377 381.538693 877.641631 381.538693 877.641631 426.00544 615.159498 426.00544 577.317635 388.166647 423.435918 740.398874 305.281915 494.119771 193.820334 494.119771Z" p-id="3862" fill="#1296db"></path></svg>